<svg xmlns="http://www.w3.org/2000/svg" fill="none" viewBox="0 0 329 329"><rect width="329" height="329" fill="#DC1E26" rx="68"/><path fill="#fff" d="M123.386 126.59c-6.947 7.085-15.999 12.065-26.133 13.909l32.251 64.892c6.421-7.707 15.128-13.411 25.069-16.05l-31.187-62.751zm80.602 77.956c-6.567-7.534-15.369-13.039-25.361-15.462l30.066-60.494c7.317 6.642 16.625 11.096 26.912 12.342l-31.617 63.614zm-8.499-129.98h-60.978a49.768 49.768 0 013.054 17.226 49.97 49.97 0 01-1.595 12.564h58.06a49.97 49.97 0 01-1.595-12.564 49.768 49.768 0 013.054-17.226zM279 91.792c0 20.872-16.78 37.792-37.479 37.792-20.7 0-37.48-16.92-37.48-37.792S220.821 54 241.521 54C262.22 54 279 70.92 279 91.792zm-153.041 0c0 20.872-16.78 37.792-37.48 37.792C67.78 129.584 51 112.664 51 91.792S67.78 54 88.48 54c20.699 0 37.479 16.92 37.479 37.792zm78.627 145.416c0 20.872-16.781 37.792-37.48 37.792-20.699 0-37.479-16.92-37.479-37.792s16.78-37.792 37.479-37.792c20.699 0 37.48 16.92 37.48 37.792z"/></svg>